<?xml version="1.0" encoding="utf-8"?>
<!-- Generator: Adobe Illustrator 15.0.0, SVG Export Plug-In  -->
<!DOCTYPE svg PUBLIC "-//W3C//DTD SVG 1.1//EN" "http://www.w3.org/Graphics/SVG/1.1/DTD/svg11.dtd" [
	<!ENTITY ns_flows "http://ns.adobe.com/Flows/1.0/">
]>
<svg version="1.1"
	 xmlns="http://www.w3.org/2000/svg" xmlns:xlink="http://www.w3.org/1999/xlink" xmlns:a="http://ns.adobe.com/AdobeSVGViewerExtensions/3.0/"
	 x="0px" y="0px" width="197px" height="26px" viewBox="0 0 197 26" enable-background="new 0 0 197 26" xml:space="preserve">
<defs>
</defs>
<path fill="#627477" d="M110.012,19.732V6.736h3.578v12.996H110.012z"/>
<path fill="#627477" d="M117.359,19.732V6.736h3.418l4.906,6.684c0.098,0.137,0.25,0.41,0.469,0.822
	c0.215,0.41,0.453,0.9,0.715,1.469c-0.07-0.539-0.125-1.018-0.156-1.438s-0.051-0.793-0.051-1.119V6.736h3.402v12.996h-3.402
	l-4.906-6.711c-0.102-0.137-0.262-0.41-0.477-0.822c-0.215-0.41-0.449-0.895-0.707-1.451c0.074,0.545,0.125,1.027,0.156,1.447
	c0.035,0.42,0.051,0.793,0.051,1.119v6.418H117.359z"/>
<path fill="#627477" d="M139.938,14.947v-2.725h6.961c0.004,0.088,0.008,0.186,0.012,0.293c0.004,0.105,0.004,0.264,0.004,0.471
	c0,2.236-0.59,3.973-1.77,5.205c-1.18,1.234-2.844,1.852-4.984,1.852c-1.055,0-1.992-0.158-2.809-0.475
	c-0.82-0.316-1.555-0.801-2.199-1.451c-0.617-0.621-1.094-1.357-1.434-2.207c-0.34-0.848-0.512-1.738-0.512-2.668
	c0-0.969,0.168-1.861,0.5-2.676c0.328-0.813,0.824-1.545,1.48-2.197c0.652-0.633,1.398-1.111,2.242-1.438s1.754-0.488,2.73-0.488
	c1.273,0,2.398,0.252,3.379,0.754c0.977,0.504,1.801,1.252,2.469,2.246l-3.07,1.475c-0.367-0.504-0.781-0.879-1.238-1.123
	c-0.457-0.246-0.973-0.369-1.539-0.369c-1.059,0-1.895,0.354-2.504,1.061s-0.914,1.674-0.914,2.898c0,1.238,0.305,2.211,0.914,2.922
	c0.609,0.709,1.445,1.064,2.504,1.064c0.898,0,1.648-0.221,2.25-0.662c0.602-0.439,0.949-1.027,1.051-1.762H139.938z"/>
<path fill="#627477" d="M149.988,19.732V6.736h7.965v2.85h-4.512v2.254h4.254v2.789h-4.254v2.191h4.512v2.912H149.988z"/>
<path fill="#627477" d="M161.207,19.732V6.736h3.418l4.906,6.684c0.098,0.137,0.25,0.41,0.469,0.822
	c0.215,0.41,0.453,0.9,0.715,1.469c-0.07-0.539-0.125-1.018-0.156-1.438s-0.051-0.793-0.051-1.119V6.736h3.402v12.996h-3.402
	l-4.906-6.711c-0.102-0.137-0.262-0.41-0.477-0.822c-0.215-0.41-0.449-0.895-0.707-1.451c0.074,0.545,0.125,1.027,0.156,1.447
	c0.035,0.42,0.051,0.793,0.051,1.119v6.418H161.207z"/>
<path fill="#627477" d="M177.691,19.732V6.736h3.578v12.996H177.691z"/>
<path fill="#627477" d="M183.512,19.732l4.484-12.996h4.438l4.492,12.996h-3.523l-0.656-2.326h-5.035l-0.672,2.326H183.512z
	 M188.477,14.877H192l-1.324-4.289c-0.039-0.129-0.098-0.34-0.168-0.629c-0.07-0.291-0.16-0.664-0.273-1.119
	c-0.078,0.32-0.152,0.625-0.227,0.914c-0.074,0.291-0.148,0.568-0.227,0.834L188.477,14.877z"/>
<path fill="#38FCC4" d="M83.943,16.764L69.852,0c-6.561,4.605-14.527,7.131-21.197,8.518c2.813,2.879,5.977,5.41,9.418,7.535
	c-3.166-1.051-6.4-2.303-9.752-3.604c-1.756-0.682-3.537-1.373-5.35-2.051c-1.77-0.662-3.512-1.336-5.232-2.002
	C24.99,3.461,12.896-1.213,0,3.145v6.1c11.621-4.826,22.787-0.51,35.676,4.479c1.74,0.674,3.504,1.355,5.293,2.025
	c1.793,0.67,3.551,1.354,5.287,2.027c9.01,3.494,17.688,6.861,26.738,6.861c3.6,0,7.264-0.543,11.025-1.813V19.84v-2.986v-0.119
	C83.994,16.746,83.969,16.754,83.943,16.764z"/>
<path fill="#627477" d="M35.676,13.723C22.807,8.742,11.654,4.43,0.051,9.227l14.111,16.787c9.156-6.43,21.057-8.807,28.336-9.686
	c-0.51-0.193-1.016-0.387-1.529-0.58C39.18,15.078,37.416,14.396,35.676,13.723z"/>
</svg>
